<svg width="24" height="24" viewBox="0 0 24 24" fill="none" xmlns="http://www.w3.org/2000/svg">
<path d="M14.3996 14.4L9.59961 9.59998" stroke="#78716C" stroke-width="2" stroke-linecap="round" stroke-linejoin="round"/>
<path d="M18.6574 21.485C18.2824 21.8602 17.7737 22.071 17.2432 22.0711C16.7128 22.0712 16.204 21.8605 15.8289 21.4855C15.4537 21.1105 15.2429 20.6018 15.2428 20.0714C15.2427 19.5409 15.4534 19.0322 15.8284 18.657L14.0614 20.425C13.6862 20.8002 13.1774 21.0109 12.6469 21.0109C12.1163 21.0109 11.6075 20.8002 11.2324 20.425C10.8572 20.0499 10.6465 19.5411 10.6465 19.0105C10.6465 18.48 10.8572 17.9712 11.2324 17.596L17.5964 11.232C17.9715 10.8569 18.4803 10.6461 19.0109 10.6461C19.5414 10.6461 20.0502 10.8569 20.4254 11.232C20.8005 11.6072 21.0113 12.116 21.0113 12.6465C21.0113 13.1771 20.8005 13.6859 20.4254 14.061L18.6574 15.828C19.0325 15.453 19.5413 15.2424 20.0717 15.2425C20.6022 15.2426 21.1109 15.4534 21.4859 15.8285C21.8609 16.2037 22.0715 16.7124 22.0714 17.2429C22.0713 17.7733 21.8605 18.282 21.4854 18.657L18.6574 21.485Z" stroke="#78716C" stroke-width="2" stroke-linecap="round" stroke-linejoin="round"/>
<path d="M21.4996 21.5L20.0996 20.1" stroke="#78716C" stroke-width="2" stroke-linecap="round" stroke-linejoin="round"/>
<path d="M3.9 3.9L2.5 2.5" stroke="#78716C" stroke-width="2" stroke-linecap="round" stroke-linejoin="round"/>
<path d="M6.40376 12.768C6.02861 13.1432 5.5198 13.3539 4.98926 13.3539C4.45872 13.3539 3.94991 13.1432 3.57476 12.768C3.19961 12.3929 2.98886 11.884 2.98886 11.3535C2.98886 10.823 3.19961 10.3142 3.57476 9.93901L5.34276 8.17201C5.15701 8.3577 4.9365 8.50498 4.69382 8.60545C4.45115 8.70592 4.19106 8.7576 3.92841 8.75756C3.39796 8.75746 2.88928 8.54666 2.51426 8.17151C2.32857 7.98575 2.18129 7.76524 2.08082 7.52257C1.98035 7.27989 1.92866 7.0198 1.92871 6.75715C1.9288 6.22671 2.13961 5.71802 2.51476 5.34301L5.34276 2.51501C5.71778 2.13986 6.22646 1.92905 6.75691 1.92896C7.01956 1.92891 7.27965 1.9806 7.52232 2.08106C7.765 2.18153 7.98551 2.32882 8.17126 2.51451C8.35702 2.7002 8.50438 2.92065 8.60493 3.16329C8.70549 3.40593 8.75727 3.666 8.75731 3.92865C8.75736 4.1913 8.70567 4.45139 8.6052 4.69407C8.50474 4.93674 8.35745 5.15725 8.17176 5.34301L9.93876 3.57501C10.3139 3.19986 10.8227 2.9891 11.3533 2.9891C11.8838 2.9891 12.3926 3.19986 12.7678 3.57501C13.1429 3.95016 13.3537 4.45897 13.3537 4.98951C13.3537 5.52005 13.1429 6.02886 12.7678 6.40401L6.40376 12.768Z" stroke="#78716C" stroke-width="2" stroke-linecap="round" stroke-linejoin="round"/>
</svg>
