<svg width="36" height="36" viewBox="0 0 36 36" fill="none" xmlns="http://www.w3.org/2000/svg">
<path d="M0 18C0 8.05888 8.05888 0 18 0C27.9411 0 36 8.05888 36 18C36 27.9411 27.9411 36 18 36C8.05888 36 0 27.9411 0 18Z" fill="#10B981"/>
<path d="M17.1664 24.6666C15.7032 24.6711 14.2917 24.1254 13.2119 23.1378C12.1321 22.1502 11.4629 20.7929 11.3371 19.335C11.2112 17.8772 11.6379 16.4253 12.5324 15.2672C13.427 14.1092 14.7241 13.3297 16.1664 13.0833C20.9164 12.1666 22.1664 11.7333 23.8331 9.66663C24.6664 11.3333 25.4998 13.15 25.4998 16.3333C25.4998 20.9166 21.5164 24.6666 17.1664 24.6666Z" stroke="white" stroke-width="1.66667" stroke-linecap="round" stroke-linejoin="round"/>
<path d="M9.6665 25.5C9.6665 23 11.2082 21.0333 13.8998 20.5C15.9165 20.1 17.9998 18.8333 18.8332 18" stroke="white" stroke-width="1.66667" stroke-linecap="round" stroke-linejoin="round"/>
</svg>
